# Blender v2.81 (sub 16) OBJ File: ''
# www.blender.org
o Sphere
v 0.667532 -0.000000 0.302259
v 0.667531 0.000000 -0.301506
v 0.001506 -0.666026 0.302259
v 0.001506 -0.666025 -0.301506
v 0.001506 -0.000000 0.998494
v -0.664519 0.000000 0.302259
v -0.664519 0.000000 -0.301506
v 0.001506 0.666026 0.302259
v 0.001506 0.666025 -0.301506
v 0.001506 0.000000 -1.001506
vn 0.5867 -0.5867 -0.5582
vn 0.7071 -0.7071 -0.0000
vn 0.5857 -0.5857 0.5603
vn -0.5867 -0.5867 -0.5582
vn -0.7071 -0.7071 -0.0000
vn -0.5857 -0.5857 0.5603
vn -0.5867 0.5867 -0.5582
vn -0.7071 0.7071 0.0000
vn -0.5857 0.5857 0.5603
vn 0.5867 0.5867 -0.5582
vn 0.7071 0.7071 -0.0000
vn 0.5857 0.5857 0.5603
s off
f 10//1 2//1 4//1
f 2//2 1//2 3//2 4//2
f 1//3 5//3 3//3
f 10//4 4//4 7//4
f 4//5 3//5 6//5 7//5
f 3//6 5//6 6//6
f 10//7 7//7 9//7
f 7//8 6//8 8//8 9//8
f 6//9 5//9 8//9
f 10//10 9//10 2//10
f 9//11 8//11 1//11 2//11
f 8//12 5//12 1//12
